<svg width="24" height="24" viewBox="0 0 24 24" fill="none" xmlns="http://www.w3.org/2000/svg">
<rect width="24" height="24" rx="12" fill="#EAF0F2"/>
<g clip-path="url(#clip0_2_7300)">
<path d="M10.9526 7.46953L10.8016 7.41035L10.6504 7.46884L9.44019 7.93673L9.91772 6.74237L9.97719 6.59363L9.92171 6.44336L9.51875 5.35205L10.5977 5.7603L10.749 5.81757L10.8994 5.75766L12.0961 5.28077L11.6289 6.49336L11.57 6.64619L11.631 6.79821L12.0767 7.91002L10.9526 7.46953ZM17.9468 14.4675L17.7967 14.4114L17.6478 14.4703L16.4575 14.941L16.9313 13.7559L16.9928 13.602L16.9318 13.4479L16.4845 12.3179L17.6023 12.7704L17.7575 12.8332L17.9129 12.7712L19.1004 12.298L18.6304 13.4908L18.5711 13.6413L18.6289 13.7924L19.044 14.8773L17.9468 14.4675ZM9.90994 16.6876L9.76505 16.6356L9.62112 16.6902L6.52134 17.8673L7.69843 14.7675L7.75292 14.624L7.70129 14.4795L6.59505 11.3825L9.70199 12.4805L9.84542 12.5312L9.98777 12.4776L13.0742 11.3145L11.9111 14.4009L11.8573 14.5437L11.9084 14.6874L13.0166 17.804L9.90994 16.6876Z" fill="#98A1BB" stroke="#98A1BB" stroke-width="0.833333"/>
</g>
<defs>
<clipPath id="clip0_2_7300">
<rect width="20" height="20" fill="white" transform="translate(2 2)"/>
</clipPath>
</defs>
</svg>
