<svg width="44" height="44" viewBox="0 0 44 44" fill="none" xmlns="http://www.w3.org/2000/svg">
<rect width="44" height="44" rx="22" fill="white" fill-opacity="0.64"/>
<rect x="4.5" y="4.5" width="35" height="35" rx="17.5" fill="white"/>
<rect x="4.5" y="4.5" width="35" height="35" rx="17.5" stroke="#EAF0F2"/>
<mask id="mask0_2_5767" style="mask-type:alpha" maskUnits="userSpaceOnUse" x="10" y="10" width="24" height="24">
<rect x="10" y="10" width="24" height="24" fill="#D9D9D9"/>
</mask>
<g mask="url(#mask0_2_5767)">
<path d="M19.0001 19.3077V29.6922C19.0001 29.782 19.0289 29.8557 19.0866 29.9134C19.1443 29.9711 19.218 29.9999 19.3079 29.9999H26.0001V26.9037C26.0001 26.646 26.0864 26.431 26.2589 26.2587C26.4312 26.0862 26.6462 25.9999 26.9039 25.9999H30.0001V19.3077C30.0001 19.2178 29.9713 19.1441 29.9136 19.0864C29.8559 19.0287 29.7822 18.9999 29.6924 18.9999H19.3079C19.218 18.9999 19.1443 19.0287 19.0866 19.0864C19.0289 19.1441 19.0001 19.2178 19.0001 19.3077ZM17.5001 29.6922V19.2922C17.5001 18.7935 17.6793 18.3702 18.0376 18.0222C18.3959 17.674 18.8244 17.4999 19.3231 17.4999H29.6924C30.191 17.4999 30.617 17.6765 30.9704 18.0297C31.3235 18.383 31.5001 18.809 31.5001 19.3077V26.0402C31.5001 26.2813 31.4533 26.5131 31.3596 26.7354C31.2661 26.9579 31.1373 27.1512 30.9731 27.3152L27.3154 30.9729C27.1514 31.1371 26.9581 31.2659 26.7356 31.3594C26.5133 31.4531 26.2815 31.4999 26.0404 31.4999H19.3079C18.8092 31.4999 18.3832 31.3233 18.0299 30.9702C17.6767 30.6168 17.5001 30.1908 17.5001 29.6922ZM12.5251 16.4229C12.4316 15.9242 12.5288 15.4749 12.8166 15.0749C13.1043 14.6749 13.4975 14.4282 13.9964 14.3347L24.2309 12.5249C24.7194 12.4314 25.161 12.5311 25.5559 12.8239C25.9507 13.1169 26.2052 13.5077 26.3194 13.9962L26.4751 14.7999C26.5328 15.0499 26.4939 15.2492 26.3586 15.3979C26.2234 15.5467 26.0629 15.6346 25.8771 15.6614C25.6911 15.6884 25.5144 15.6554 25.3471 15.5624C25.1799 15.4694 25.0643 15.2979 25.0001 15.0479L24.8251 14.2114C24.8123 14.1409 24.7738 14.0848 24.7096 14.0432C24.6456 14.0015 24.5751 13.9871 24.4981 13.9999L14.2599 15.8192C14.17 15.832 14.1027 15.8737 14.0579 15.9442C14.013 16.0147 13.9969 16.0948 14.0096 16.1847L15.6731 25.6692C15.7103 25.8757 15.6731 26.0642 15.5616 26.2347C15.4501 26.4052 15.2912 26.5122 15.0849 26.5557C14.872 26.5993 14.6813 26.5596 14.5126 26.4364C14.3441 26.3134 14.2413 26.1455 14.2041 25.9327L12.5251 16.4229Z" fill="#3D404B"/>
</g>
</svg>
